<svg width="100%" height="100%" viewBox="0 0 937 213" version="1.1" xmlns="http://www.w3.org/2000/svg" xmlns:xlink="http://www.w3.org/1999/xlink" xml:space="preserve" style="fill-rule:evenodd;clip-rule:evenodd;stroke-linejoin:round;stroke-miterlimit:2;">
    <g transform="matrix(1,0,0,1,-12762,-4334.25)">
        <g transform="matrix(0.280203,0,0,0.280203,9157.26,2803.47)">
            <g transform="matrix(3.56884,0,0,3.56884,-32680.8,-10005.1)">
                <path d="M13685.6,4469.14C13652.2,4528.07 13616.3,4542.44 13591.1,4545.95C13578.5,4547.67 13562.4,4545.75 13556.1,4533.06C13549.6,4518.57 13552.8,4501.66 13557.6,4487.11C13566.1,4469.25 13579.1,4453.9 13591.8,4438.88C13601.5,4428.42 13611.2,4416.34 13625.4,4412.14C13633.7,4408.83 13643.2,4417.86 13639.9,4426.29C13636,4436.7 13627,4443.94 13619.7,4451.97C13607.1,4465.05 13593.4,4479.43 13590.6,4498.12C13589.9,4509.14 13603.9,4508.48 13611.2,4506.18C13638,4498.67 13663,4485.18 13685.6,4469.14ZM13519.4,4417.57C13526.2,4411.43 13535.3,4403.52 13545.1,4407.38C13551.1,4409.34 13551.6,4416.37 13549.8,4421.49C13545.4,4435.25 13536.7,4447.05 13528.1,4458.47C13512.4,4478.29 13494.8,4496.95 13474,4511.49C13466.2,4516.58 13457,4522.48 13447.1,4519.96C13372.3,4505.69 13298.5,4486.47 13223.8,4471.42C13125.3,4451.36 13024,4438.41 12923.6,4449C12889.8,4452.36 12856.5,4458.9 12823.6,4467.19C12831.5,4469.22 12841.4,4469.38 12846.7,4476.68C12851.9,4489.23 12838,4503.79 12825.2,4500.23C12808,4496.87 12790.9,4493.39 12773.8,4489.82C12764.9,4488.8 12760.5,4478.72 12762.4,4470.81C12763.8,4463.32 12770.7,4459.06 12776.3,4454.85C12798,4440.4 12823.9,4434.17 12849.2,4429.53C12905.7,4420.09 12963.3,4420.26 13020.4,4422.35C13117.5,4426.56 13214.1,4438.36 13309.9,4454.53C13355.1,4462.41 13400.3,4470.94 13444.6,4482.98C13453.7,4486.28 13462.2,4479.84 13468.7,4474.21C13487.5,4457.07 13501.1,4435.14 13519.4,4417.57ZM13672.7,4335.99C13684.2,4329.29 13706,4343.21 13696.8,4356.61C13687.6,4372.63 13673.5,4388.85 13654.3,4391.81C13641.6,4393.71 13638.1,4376.22 13645,4368.26C13654,4357.39 13660.8,4343.9 13672.7,4335.99ZM13582,4335.57C13591.5,4330.9 13607,4339.35 13605.8,4350.26C13599.9,4364.82 13588.6,4377.43 13574.7,4384.8C13568.8,4387.73 13559.9,4390.19 13554.8,4384.37C13549.6,4376.6 13553.6,4367.02 13559.3,4360.8C13566.7,4352.35 13571.8,4341.09 13582,4335.57Z" style="fill:white;fill-rule:nonzero;"></path>
            </g>
        </g>
    </g>
</svg>
