<svg style="fill-rule:evenodd;clip-rule:evenodd;stroke-linejoin:round;stroke-miterlimit:2;" xml:space="preserve" xmlns:xlink="http://www.w3.org/1999/xlink" xmlns="http://www.w3.org/2000/svg" version="1.1" viewBox="0 0 202 44" height="100%" width="100%">
    <g transform="matrix(1,0,0,1,-18444,-8131.61)">
        <g transform="matrix(1,0,0,0.615793,-0.65413,3132.54)" id="Artboard3">
            <rect style="fill:none;" height="70.828" width="201.167" y="8118.1" x="18444.7"></rect>
            <g transform="matrix(1,0,0,1.62392,-17.1227,-5098.42)">
                <text style="font-family:'BerkeleyMonoVariable-Bold', 'Berkeley Mono Variable';font-size:19.524px;fill:white;" y="8157.31px" x="18518.2px">C<tspan y="8157.31px 8157.31px 8157.31px 8157.31px 8157.31px 8157.31px 8157.31px 8157.31px 8157.31px" x="18529.5px 18540.8px 18552.1px 18563.5px 18574.8px 18586.1px 18597.4px 18608.8px 18620.1px">.O.B.R.A.</tspan></text>
                <g transform="matrix(19.5235,0,0,19.5235,18654.4,8176.83)">
                </g>
                <text style="font-family:'BerkeleyMonoVariable-Bold', 'Berkeley Mono Variable';font-size:19.524px;fill:white;" y="8176.83px" x="18518.2px">L<tspan y="8176.83px 8176.83px 8176.83px 8176.83px 8176.83px 8176.83px 8176.83px 8176.83px 8176.83px 8176.83px 8176.83px" x="18529.5px 18540.8px 18552.1px 18563.5px 18574.8px 18586.1px 18597.4px 18608.8px 18620.1px 18631.4px 18642.7px">aboratories</tspan></text>
            </g>
            <g transform="matrix(2.0756,0,0,3.37061,18452.6,8126.55)">
                <path style="fill:white;" d="M1.004,6.3C0.987,6.272 0.97,6.243 0.954,6.213C0.914,6.132 0.889,6.043 0.88,5.949C0.878,5.927 0.877,5.904 0.877,5.881C0.877,5.858 0.878,5.836 0.88,5.813C0.889,5.717 0.915,5.627 0.956,5.545L1.001,5.467L3.914,0.422C3.93,0.392 3.947,0.363 3.965,0.335C4.016,0.258 4.082,0.19 4.158,0.137C4.195,0.111 4.235,0.088 4.277,0.069C4.372,0.025 4.479,0 4.591,0L15.408,0C15.52,0 15.627,0.025 15.723,0.069C15.765,0.088 15.805,0.112 15.842,0.138C15.925,0.196 15.995,0.271 16.048,0.357C16.056,0.371 16.064,0.384 16.072,0.398L18.999,5.467L19.044,5.545C19.085,5.627 19.111,5.717 19.12,5.813C19.122,5.836 19.123,5.858 19.123,5.881C19.123,5.904 19.122,5.927 19.12,5.949C19.111,6.043 19.086,6.132 19.046,6.213C19.03,6.243 19.013,6.272 18.996,6.3L13.625,15.602C13.618,15.616 13.61,15.629 13.602,15.643C13.548,15.729 13.478,15.804 13.395,15.862C13.358,15.888 13.318,15.912 13.276,15.931C13.18,15.975 13.073,16 12.961,16L7.039,16C6.927,16 6.82,15.975 6.724,15.931C6.682,15.912 6.642,15.888 6.605,15.862C6.522,15.804 6.452,15.729 6.398,15.643C6.39,15.629 6.382,15.616 6.375,15.602L1.004,6.3ZM6.456,6.003L9.327,10.976C9.451,11.221 9.706,11.39 10,11.39C10.294,11.39 10.549,11.221 10.673,10.976L13.529,6.029C13.604,5.912 13.647,5.773 13.647,5.623C13.647,5.208 13.31,4.87 12.894,4.87L7.107,4.87C6.691,4.87 6.354,5.208 6.354,5.623C6.354,5.762 6.391,5.891 6.456,6.003Z"></path>
            </g>
        </g>
    </g>
</svg>
