<svg clip-rule="evenodd" fill-rule="evenodd" xml:space="preserve" xmlns="http://www.w3.org/2000/svg" viewBox="0 0 20 16"><path d="M0 0h20v16H0z" fill="none"></path><path fill="#a4a5a6" d="M1.004 6.3c-.017-.028-.034-.057-.05-.087-.04-.081-.065-.17-.074-.264-.002-.022-.003-.045-.003-.068 0-.023.001-.045.003-.068.009-.096.035-.186.076-.268l.045-.078L3.914.422c.016-.03.033-.059.051-.087.051-.077.117-.145.193-.198.037-.026.077-.049.119-.068C4.372.025 4.479 0 4.591 0h10.817c.112 0 .219.025.315.069.042.019.082.043.119.069.083.058.153.133.206.219.008.014.016.027.024.041l2.927 5.069.045.078c.041.082.067.172.076.268.002.023.003.045.003.068 0 .023-.001.046-.003.068-.009.094-.034.183-.074.264-.016.03-.033.059-.05.087l-5.371 9.302c-.007.014-.015.027-.023.041-.054.086-.124.161-.207.219-.037.026-.077.05-.119.069-.096.044-.203.069-.315.069H7.039c-.112 0-.219-.025-.315-.069-.042-.019-.082-.043-.119-.069-.083-.058-.153-.133-.207-.219-.008-.014-.016-.027-.023-.041L1.004 6.3Zm5.452-.297 2.871 4.973c.124.245.379.414.673.414.294 0 .549-.169.673-.414l2.856-4.947c.075-.117.118-.256.118-.406 0-.415-.337-.753-.753-.753H7.107c-.416 0-.753.338-.753.753 0 .139.037.268.102.38Z"></path></svg>